REM MD5 407aa1be3a3f1cde266b02e0cf94b653
FILE "MIP Club Demo 02 (Germany).bin" BINARY
  TRACK 01 MODE2/2352
    INDEX 01 00:00:00
  TRACK 02 AUDIO
    INDEX 00 36:12:21
    INDEX 01 36:14:21
  TRACK 03 AUDIO
    INDEX 00 40:28:29
    INDEX 01 40:30:29
  TRACK 04 AUDIO
    INDEX 00 43:02:09
    INDEX 01 43:04:09
REM LEADOUT 46:05:40
